<svg width="512" height="512" viewBox="0 0 512 512" fill="none" xmlns="http://www.w3.org/2000/svg">
<rect width="512" height="512" fill="black"/>
<path d="M258 433.5C235 433.5 214.333 429.5 196 421.5C178 413.167 163.833 401.833 153.5 387.5C143.167 372.833 137.833 356 137.5 337H186C187.667 353.333 194.333 367.167 206 378.5C218 389.5 235.333 395 258 395C279.667 395 296.667 389.667 309 379C321.667 368 328 354 328 337C328 323.667 324.333 312.833 317 304.5C309.667 296.167 300.5 289.833 289.5 285.5C278.5 281.167 263.667 276.5 245 271.5C222 265.5 203.5 259.5 189.5 253.5C175.833 247.5 164 238.167 154 225.5C144.333 212.5 139.5 195.167 139.5 173.5C139.5 154.5 144.333 137.667 154 123C163.667 108.333 177.167 97 194.5 89C212.167 81 232.333 77 255 77C287.667 77 314.333 85.1667 335 101.5C356 117.833 367.833 139.5 370.5 166.5H320.5C318.833 153.167 311.833 141.5 299.5 131.5C287.167 121.167 270.833 116 250.5 116C231.5 116 216 121 204 131C192 140.667 186 154.333 186 172C186 184.667 189.5 195 196.5 203C203.833 211 212.667 217.167 223 221.5C233.667 225.5 248.5 230.167 267.5 235.5C290.5 241.833 309 248.167 323 254.5C337 260.5 349 270 359 283C369 295.667 374 313 374 335C374 352 369.5 368 360.5 383C351.5 398 338.167 410.167 320.5 419.5C302.833 428.833 282 433.5 258 433.5Z" fill="url(#paint0_linear_9_22)"/>
<defs>
<linearGradient id="paint0_linear_9_22" x1="144" y1="127" x2="239.014" y2="432.032" gradientUnits="userSpaceOnUse">
<stop stop-color="white"/>
<stop offset="0.863137" stop-color="white" stop-opacity="0"/>
</linearGradient>
</defs>
</svg>
